<?xml version="1.0" standalone="no"?>
<!DOCTYPE svg PUBLIC "-//W3C//DTD SVG 20010904//EN"
 "http://www.w3.org/TR/2001/REC-SVG-20010904/DTD/svg10.dtd">
<svg version="1.0" xmlns="http://www.w3.org/2000/svg"
 width="1080.000000pt" height="1080.000000pt" viewBox="0 0 1080.000000 1080.000000"
 preserveAspectRatio="xMidYMid meet">
<metadata>
Created by potrace 1.14, written by Peter Selinger 2001-2017
</metadata>
<g transform="translate(0.000000,1080.000000) scale(0.100000,-0.100000)"
fill="#000000" stroke="none">
<path d="M5245 9854 c-16 -2 -86 -9 -155 -15 -167 -15 -429 -60 -625 -109
-760 -187 -1458 -575 -2021 -1123 -347 -338 -603 -673 -828 -1085 -276 -505
-457 -1102 -518 -1702 -19 -189 -16 -699 5 -885 96 -829 377 -1546 862 -2200
119 -161 223 -282 375 -439 1018 -1048 2442 -1523 3905 -1302 905 137 1798
595 2459 1261 727 733 1166 1660 1278 2700 17 159 17 731 0 890 -67 628 -249
1199 -555 1750 -76 137 -284 446 -389 576 -581 727 -1360 1253 -2236 1510
-247 72 -490 121 -767 155 -113 14 -717 28 -790 18z m-255 -1953 c5 -11 10
-29 10 -40 0 -11 9 -25 19 -30 10 -6 23 -24 29 -40 6 -16 19 -32 31 -36 11 -3
23 -14 26 -25 3 -10 19 -23 36 -29 16 -6 42 -19 56 -31 15 -12 41 -20 62 -20
28 0 43 -7 63 -30 25 -29 29 -30 108 -28 76 1 83 -1 103 -25 18 -20 33 -26 80
-29 44 -4 61 -10 72 -25 11 -16 29 -21 81 -26 55 -4 71 -9 91 -31 21 -22 32
-26 84 -26 52 0 64 -3 80 -24 14 -18 32 -24 76 -29 32 -3 62 -12 68 -20 14
-20 50 -37 76 -37 13 0 32 -9 44 -20 27 -28 107 -80 123 -80 6 0 30 -18 52
-40 22 -22 40 -46 40 -52 0 -19 54 -94 99 -140 66 -65 70 -54 73 186 l3 201
72 3 c64 3 72 1 78 -18 3 -11 15 -25 26 -30 18 -10 19 -23 19 -204 0 -192 0
-193 -25 -216 -16 -15 -25 -34 -25 -55 0 -39 -16 -55 -56 -55 -23 0 -36 -7
-48 -25 -11 -16 -26 -25 -43 -25 -15 0 -35 -7 -45 -17 -16 -14 -18 -33 -18
-154 0 -135 -1 -139 -24 -154 -15 -10 -26 -29 -30 -55 -3 -21 -14 -45 -24 -52
-15 -11 -53 -54 -103 -114 -8 -10 -37 -37 -63 -59 -151 -125 -154 -132 -147
-296 6 -118 8 -128 35 -168 25 -35 30 -54 34 -121 l5 -79 -79 -76 c-108 -104
-105 -103 -139 -110 -17 -4 -41 -18 -55 -30 -16 -14 -44 -25 -79 -29 -30 -4
-72 -17 -95 -28 -36 -19 -62 -22 -210 -26 -164 -4 -170 -4 -237 23 -38 15 -75
25 -81 22 -20 -6 -81 13 -103 33 -11 9 -36 20 -55 24 -27 4 -54 26 -122 98
-85 90 -88 94 -90 143 -1 59 -2 56 12 119 5 27 18 57 29 67 15 14 19 38 24
138 6 140 -2 183 -38 199 -14 6 -25 16 -25 22 0 5 -17 21 -39 34 -21 14 -56
48 -77 76 -22 28 -62 75 -90 103 -37 38 -53 63 -58 92 -4 23 -17 47 -29 57
-20 15 -22 28 -27 146 -5 139 -12 156 -59 167 -16 3 -39 17 -51 31 -16 16 -34
24 -56 24 -28 0 -36 6 -50 33 -9 17 -21 35 -27 38 -5 4 -13 26 -18 50 -9 50
-12 419 -3 443 4 10 18 16 40 16 28 0 45 -11 100 -65 l66 -66 -2 -107 c-4
-160 -4 -161 28 -179 16 -9 33 -26 38 -37 11 -26 28 -24 32 4 3 15 -3 23 -19
27 -22 6 -22 8 -17 155 5 132 8 152 26 171 11 12 24 36 28 52 4 17 29 51 55
76 33 31 50 57 54 82 4 22 16 42 31 52 17 11 24 25 24 47 0 22 8 39 25 53 24
19 26 27 29 124 3 99 4 106 30 128 33 28 42 29 56 4z m602 -3363 c-6 -44 -20
-62 -38 -47 -17 14 -18 81 -2 97 20 20 45 -12 40 -50z"/>
</g>
</svg>
